<?xml version="1.0" encoding="utf-8"?>
<svg xmlns="http://www.w3.org/2000/svg" viewBox="0 0 500 500">
  <text style="fill: rgb(51, 51, 51); font-family: Arial, sans-serif; font-size: 150px; letter-spacing: -36px; stroke-opacity: 0; stroke-width: 0px; text-anchor: middle; white-space: pre;" transform="matrix(-2.51472, 0, 0, 2.32843, -281.16, -389.824)" x="-221.55" y="324.623">27</text>
  <path fill="rgb(255,0,0)" stroke="rgb(255,0,0)" opacity="0.9882352941176471" d="M 140.513 130.1 C 153.531 128.228 185.386 130.942 198.404 133.763 C 206.685 135.559 211.663 136.785 215.626 141.092 C 219.736 145.559 222.634 154.296 222.221 160.511 C 221.815 166.623 213.145 172.451 213.427 178.098 C 213.706 183.682 221.798 189 223.687 194.22 C 225.319 198.732 225.487 203.408 225.152 207.411 C 224.849 211.031 220.847 214.677 222.221 217.304 C 223.888 220.492 233.391 219.616 237.61 223.899 C 242.746 229.113 245.297 246.19 248.969 248.814 C 250.956 250.236 252.456 247.906 254.83 248.081 C 257.993 248.315 262.48 249.191 266.555 251.013 C 271.333 253.149 278.676 258.37 281.578 260.906 C 283.274 262.387 283.202 263.253 284.509 264.569 C 286.174 266.246 289.893 268.836 291.105 270.066 C 291.758 270.73 291.856 270.966 292.204 271.531 C 292.595 272.167 292.468 272.839 293.303 273.729 C 294.856 275.384 301.005 278.506 302.829 280.324 C 303.954 281.446 304.112 282.553 304.662 283.256 C 305.06 283.767 305.299 283.805 305.76 284.356 C 306.496 285.233 307.37 287.169 308.692 288.386 C 310.198 289.772 313.071 290.52 314.554 292.049 C 315.947 293.486 316.27 295.813 317.485 297.179 C 318.62 298.456 320.662 299.136 321.515 300.111 C 322.16 300.845 322.066 301.76 322.615 302.309 C 323.164 302.858 324.24 303.002 324.813 303.408 C 325.291 303.746 325.341 304.014 325.913 304.507 C 326.895 305.355 329.703 307.218 330.675 308.171 C 331.281 308.764 331.207 308.799 331.775 309.637 C 332.966 311.396 336.728 316.084 338.003 319.53 C 339.219 322.814 339.846 326.203 339.47 329.789 C 339.055 333.74 337.066 339.018 335.073 342.247 C 333.378 344.992 331.989 346.825 328.843 348.475 C 324.516 350.747 312.471 352.489 309.79 352.872 C 308.84 353.009 309.156 352.66 308.325 352.872 C 306.351 353.379 301.398 356.967 296.6 358.002 C 290.643 359.287 280.728 359.459 274.617 358.735 C 269.666 358.148 266.341 357.288 262.159 355.071 C 257.313 352.501 252.177 344.602 247.502 343.346 C 243.699 342.324 241.264 345.856 236.511 345.544 C 229.559 345.09 214.864 340.784 208.664 337.484 C 204.393 335.21 202.333 333.247 200.237 329.789 C 197.837 325.831 195.724 319.194 195.839 314.401 C 195.948 309.96 200.994 309.009 200.237 301.942 C 198.544 286.127 171.891 225.22 161.764 210.708 C 156.856 203.675 151.81 205.177 148.941 200.816 C 145.986 196.326 144.734 187.275 144.544 183.961 C 144.444 182.242 146.095 181.607 145.276 180.663 C 143.745 178.898 133.691 179.144 129.521 177 C 125.894 175.134 123.19 172.763 121.094 169.305 C 118.694 165.347 116.413 159.116 116.698 153.916 C 116.994 148.495 119.4 141.389 123.293 137.428 C 127.267 133.384 132.233 131.291 140.513 130.1 Z" style="fill: rgb(51, 51, 51); fill-opacity: 1; fill-rule: nonzero; stroke: none; stroke-dasharray: none; stroke-dashoffset: 0px; stroke-linecap: butt; stroke-linejoin: miter; stroke-miterlimit: 4; paint-order: normal; vector-effect: none; opacity: 1; mix-blend-mode: normal; isolation: auto; stroke-opacity: 0; stroke-width: 0px;"/>
</svg>